<svg class="typst-doc" viewBox="0 0 595.2764999999999 141.73250000000002" width="595.2764999999999pt" height="141.73250000000002pt" xmlns="http://www.w3.org/2000/svg" xmlns:xlink="http://www.w3.org/1999/xlink" xmlns:h5="http://www.w3.org/1999/xhtml">
    <g>
        <g transform="translate(0 0)">
            <path class="typst-shape" fill="#fffdf2" d="M 0 0 L 0 141.7325 L 595.2765 141.7325 L 595.2765 0 Z "/>
        </g>
        <g transform="translate(255.11849999999998 28.3465)">
            <g class="typst-group">
                <g>
                    <g transform="translate(0 0)">
                        <path class="typst-shape" fill="none" stroke="#aaaaaa" stroke-width="0.2" stroke-linecap="butt" stroke-linejoin="miter" stroke-miterlimit="4" d="M 0 85.0395 C 0 85.0395 0 0 0 0 "/>
                    </g>
                    <g transform="translate(28.3465 0)">
                        <path class="typst-shape" fill="none" stroke="#aaaaaa" stroke-width="0.2" stroke-linecap="butt" stroke-linejoin="miter" stroke-miterlimit="4" d="M 0 85.0395 C 0 85.0395 0 0 0 0 "/>
                    </g>
                    <g transform="translate(56.693 0)">
                        <path class="typst-shape" fill="none" stroke="#aaaaaa" stroke-width="0.2" stroke-linecap="butt" stroke-linejoin="miter" stroke-miterlimit="4" d="M 0 85.0395 C 0 85.0395 0 0 0 0 "/>
                    </g>
                    <g transform="translate(85.0395 0)">
                        <path class="typst-shape" fill="none" stroke="#aaaaaa" stroke-width="0.2" stroke-linecap="butt" stroke-linejoin="miter" stroke-miterlimit="4" d="M 0 85.0395 C 0 85.0395 0 0 0 0 "/>
                    </g>
                    <g transform="translate(0 85.0395)">
                        <path class="typst-shape" fill="none" stroke="#aaaaaa" stroke-width="0.2" stroke-linecap="butt" stroke-linejoin="miter" stroke-miterlimit="4" d="M 0 0 C 0 0 85.0395 0 85.0395 0 "/>
                    </g>
                    <g transform="translate(0 56.693)">
                        <path class="typst-shape" fill="none" stroke="#aaaaaa" stroke-width="0.2" stroke-linecap="butt" stroke-linejoin="miter" stroke-miterlimit="4" d="M 0 0 C 0 0 85.0395 0 85.0395 0 "/>
                    </g>
                    <g transform="translate(0 28.3465)">
                        <path class="typst-shape" fill="none" stroke="#aaaaaa" stroke-width="0.2" stroke-linecap="butt" stroke-linejoin="miter" stroke-miterlimit="4" d="M 0 0 C 0 0 85.0395 0 85.0395 0 "/>
                    </g>
                    <g transform="translate(0 0)">
                        <path class="typst-shape" fill="none" stroke="#aaaaaa" stroke-width="0.2" stroke-linecap="butt" stroke-linejoin="miter" stroke-miterlimit="4" d="M 0 0 C 0 0 85.0395 0 85.0395 0 "/>
                    </g>
                    <g transform="translate(28.3465 28.3465)">
                        <path class="typst-shape" fill="none" stroke="#000000" stroke-width="1" stroke-linecap="butt" stroke-linejoin="miter" stroke-miterlimit="4" d="M 0 56.693 C 0 56.693 56.693 0 56.693 0 "/>
                    </g>
                    <g transform="translate(28.3465 61.81940657656209)">
                        <path class="typst-shape" fill="none" stroke="#000000" stroke-width="1" stroke-linecap="butt" stroke-linejoin="miter" stroke-miterlimit="4" d="M 0 23.220093 C 0 23.220093 16.258884 0 16.258884 0 "/>
                    </g>
                    <g transform="translate(49.34003490252491 50.2013289610038)">
                        <path class="typst-shape" fill="#ff4136" d="M 2 0 C 3.103568 0 4 0.896432 4 2 C 4 2 4 2 4 2 C 4 3.103568 3.103568 4 2 4 C 2 4 2 4 2 4 C 0.896432 4 0 3.103568 0 2 C 0 2 0 2 0 2 C 0 0.896432 0.896432 0 2 0 C 2 0 2 0 2 0 Z "/>
                    </g>
                </g>
            </g>
        </g>
    </g>
</svg>
