<svg class="typst-doc" viewBox="0 0 595.2764999999999 76.693" width="595.2764999999999pt" height="76.693pt" xmlns="http://www.w3.org/2000/svg" xmlns:xlink="http://www.w3.org/1999/xlink" xmlns:h5="http://www.w3.org/1999/xhtml">
    <g>
        <g transform="translate(0 0)">
            <path class="typst-shape" fill="#fffdf2" d="M 0 0 L 0 76.693 L 595.2765 76.693 L 595.2765 0 Z "/>
        </g>
        <g transform="translate(287.63824999999997 28.3465)">
            <g class="typst-group">
                <g>
                    <g transform="translate(0 0)">
                        <path class="typst-shape" fill="none" stroke="#000000" stroke-width="1" stroke-linecap="butt" stroke-linejoin="miter" stroke-miterlimit="4" d="M 10 0 C 15.51784 0 20 4.48216 20 10 C 20 10 20 10 20 10 C 20 15.51784 15.51784 20 10 20 C 10 20 10 20 10 20 C 4.48216 20 0 15.51784 0 10 C 0 10 0 10 0 10 C 0 4.48216 4.48216 0 10 0 C 10 0 10 0 10 0 Z "/>
                    </g>
                </g>
            </g>
        </g>
    </g>
</svg>
