<svg class="typst-doc" viewBox="0 0 595.2764999999999 172.20498750000002" width="595.2764999999999pt" height="172.20498750000002pt" xmlns="http://www.w3.org/2000/svg" xmlns:xlink="http://www.w3.org/1999/xlink" xmlns:h5="http://www.w3.org/1999/xhtml">
    <g>
        <g transform="translate(0 0)">
            <path class="typst-shape" fill="#fffdf2" d="M 0 0 L 0 172.20499 L 595.2765 172.20499 L 595.2765 0 Z "/>
        </g>
        <g transform="translate(270.003750300375 28.3465)">
            <g class="typst-group">
                <g>
                    <g transform="translate(0 0)">
                        <path class="typst-shape" fill="none" stroke="#000000" stroke-width="1" stroke-linecap="butt" stroke-linejoin="miter" stroke-miterlimit="4" d="M 0 0 C 0 0 28.3465 0 28.3465 0 "/>
                    </g>
                    <g transform="translate(7.093300624219589 28.3465)">
                        <path class="typst-shape" fill="none" stroke="#000000" stroke-width="1" stroke-linecap="butt" stroke-linejoin="miter" stroke-miterlimit="4" d="M 0 0 C 0 0 42.506397 0 42.506397 0 "/>
                    </g>
                    <g transform="translate(1.4240006007500001 26.2205125)">
                        <path class="typst-shape" fill="none" stroke="#000000" stroke-width="1" stroke-linecap="butt" stroke-linejoin="miter" stroke-miterlimit="4" d="M 0 2.1259875 C 0 2.1259875 5.6693 0 5.6693 0 C 5.6693 0 5.6693 4.251975 5.6693 4.251975 C 5.6693 4.251975 5.6693 4.251975 5.6693 4.251975 C 5.6693 4.251975 0 2.1259875 0 2.1259875 C 0 2.1259875 0 2.1259875 0 2.1259875 Z "/>
                    </g>
                    <g transform="translate(49.59969939925 26.2205125)">
                        <path class="typst-shape" fill="none" stroke="#000000" stroke-width="1" stroke-linecap="butt" stroke-linejoin="miter" stroke-miterlimit="4" d="M 5.6693 2.1259875 C 5.6693 2.1259875 0 4.251975 0 4.251975 C 0 4.251975 0 0 0 0 C 0 0 0 0 0 0 C 0 0 5.6693 2.1259875 5.6693 2.1259875 C 5.6693 2.1259875 5.6693 2.1259875 5.6693 2.1259875 Z "/>
                    </g>
                    <g transform="translate(7.093300624219589 56.693)">
                        <path class="typst-shape" fill="none" stroke="#000000" stroke-width="1" stroke-linecap="butt" stroke-linejoin="miter" stroke-miterlimit="4" d="M 0 0 C 0 0 42.506397 0 42.506397 0 "/>
                    </g>
                    <g transform="translate(1.4240006007500001 54.5670125)">
                        <path class="typst-shape" fill="none" stroke="#000000" stroke-width="1" stroke-linecap="butt" stroke-linejoin="miter" stroke-miterlimit="4" d="M 0 2.1259875 C 0 2.1259875 5.6693 0 5.6693 0 C 5.6693 0 5.6693 4.251975 5.6693 4.251975 C 5.6693 4.251975 5.6693 4.251975 5.6693 4.251975 C 5.6693 4.251975 0 2.1259875 0 2.1259875 C 0 2.1259875 0 2.1259875 0 2.1259875 Z "/>
                    </g>
                    <g transform="translate(49.59969939925 54.5670125)">
                        <path class="typst-shape" fill="none" stroke="#000000" stroke-width="1" stroke-linecap="butt" stroke-linejoin="miter" stroke-miterlimit="4" d="M 5.6693 2.1259875 C 5.6693 2.1259875 2.83465 4.251975 2.83465 4.251975 C 2.83465 4.251975 0 2.1259875 0 2.1259875 C 0 2.1259875 2.83465 0 2.83465 0 C 2.83465 0 2.83465 0 2.83465 0 C 2.83465 0 5.6693 2.1259875 5.6693 2.1259875 C 5.6693 2.1259875 5.6693 2.1259875 5.6693 2.1259875 Z "/>
                    </g>
                    <g transform="translate(17.021251248439178 85.0395)">
                        <path class="typst-shape" fill="none" stroke="#000000" stroke-width="1" stroke-linecap="butt" stroke-linejoin="miter" stroke-miterlimit="4" d="M 0 0 C 0 0 22.650497 0 22.650497 0 "/>
                    </g>
                    <g transform="translate(1.4240006007500001 82.9135125)">
                        <path class="typst-shape" fill="none" stroke="#000000" stroke-width="1" stroke-linecap="butt" stroke-linejoin="miter" stroke-miterlimit="4" d="M 0 2.1259875 C 0 2.1259875 5.6693 0 5.6693 0 C 5.6693 0 5.6693 4.251975 5.6693 4.251975 C 5.6693 4.251975 5.6693 4.251975 5.6693 4.251975 C 5.6693 4.251975 0 2.1259875 0 2.1259875 C 0 2.1259875 0 2.1259875 0 2.1259875 Z "/>
                    </g>
                    <g transform="translate(11.3519512015 82.9135125)">
                        <path class="typst-shape" fill="none" stroke="#000000" stroke-width="1" stroke-linecap="butt" stroke-linejoin="miter" stroke-miterlimit="4" d="M 0 2.1259875 C 0 2.1259875 5.6693 0 5.6693 0 C 5.6693 0 5.6693 4.251975 5.6693 4.251975 C 5.6693 4.251975 5.6693 4.251975 5.6693 4.251975 C 5.6693 4.251975 0 2.1259875 0 2.1259875 C 0 2.1259875 0 2.1259875 0 2.1259875 Z "/>
                    </g>
                    <g transform="translate(49.59969939925 82.9135125)">
                        <path class="typst-shape" fill="none" stroke="#000000" stroke-width="1" stroke-linecap="butt" stroke-linejoin="miter" stroke-miterlimit="4" d="M 5.6693 2.1259875 C 5.6693 2.1259875 2.83465 4.251975 2.83465 4.251975 C 2.83465 4.251975 0 2.1259875 0 2.1259875 C 0 2.1259875 2.83465 0 2.83465 0 C 2.83465 0 2.83465 0 2.83465 0 C 2.83465 0 5.6693 2.1259875 5.6693 2.1259875 C 5.6693 2.1259875 5.6693 2.1259875 5.6693 2.1259875 Z "/>
                    </g>
                    <g transform="translate(39.6717487985 82.9135125)">
                        <path class="typst-shape" fill="none" stroke="#000000" stroke-width="1" stroke-linecap="butt" stroke-linejoin="miter" stroke-miterlimit="4" d="M 5.6693 2.1259875 C 5.6693 2.1259875 0 4.251975 0 4.251975 C 0 4.251975 0 0 0 0 C 0 0 0 0 0 0 C 0 0 5.6693 2.1259875 5.6693 2.1259875 C 5.6693 2.1259875 5.6693 2.1259875 5.6693 2.1259875 Z "/>
                    </g>
                    <g transform="translate(17.021251248439178 113.386)">
                        <path class="typst-shape" fill="none" stroke="#000000" stroke-width="1" stroke-linecap="butt" stroke-linejoin="miter" stroke-miterlimit="4" d="M 0 0 C 0 0 22.650497 0 22.650497 0 "/>
                    </g>
                    <g transform="translate(1.4240006007500001 111.26001249999999)">
                        <path class="typst-shape" fill="none" stroke="#ff4136" stroke-width="1" stroke-linecap="butt" stroke-linejoin="miter" stroke-miterlimit="4" d="M 0 2.1259875 C 0 2.1259875 5.6693 0 5.6693 0 C 5.6693 0 5.6693 4.251975 5.6693 4.251975 C 5.6693 4.251975 5.6693 4.251975 5.6693 4.251975 C 5.6693 4.251975 0 2.1259875 0 2.1259875 C 0 2.1259875 0 2.1259875 0 2.1259875 Z "/>
                    </g>
                    <g transform="translate(11.3519512015 111.26001249999999)">
                        <path class="typst-shape" fill="none" stroke="#000000" stroke-width="1" stroke-linecap="butt" stroke-linejoin="miter" stroke-miterlimit="4" d="M 0 2.1259875 C 0 2.1259875 5.6693 0 5.6693 0 C 5.6693 0 5.6693 4.251975 5.6693 4.251975 C 5.6693 4.251975 5.6693 4.251975 5.6693 4.251975 C 5.6693 4.251975 0 2.1259875 0 2.1259875 C 0 2.1259875 0 2.1259875 0 2.1259875 Z "/>
                    </g>
                    <g transform="translate(49.59969939925 111.26001249999999)">
                        <path class="typst-shape" fill="none" stroke="#0074d9" stroke-width="1" stroke-linecap="butt" stroke-linejoin="miter" stroke-miterlimit="4" d="M 5.6693 2.1259875 C 5.6693 2.1259875 0 4.251975 0 4.251975 C 0 4.251975 0 0 0 0 C 0 0 0 0 0 0 C 0 0 5.6693 2.1259875 5.6693 2.1259875 C 5.6693 2.1259875 5.6693 2.1259875 5.6693 2.1259875 Z "/>
                    </g>
                    <g transform="translate(39.6717487985 111.26001249999999)">
                        <path class="typst-shape" fill="none" stroke="#000000" stroke-width="1" stroke-linecap="butt" stroke-linejoin="miter" stroke-miterlimit="4" d="M 5.6693 2.1259875 C 5.6693 2.1259875 0 4.251975 0 4.251975 C 0 4.251975 0 0 0 0 C 0 0 0 0 0 0 C 0 0 5.6693 2.1259875 5.6693 2.1259875 C 5.6693 2.1259875 5.6693 2.1259875 5.6693 2.1259875 Z "/>
                    </g>
                </g>
            </g>
        </g>
    </g>
</svg>
