<svg class="typst-doc" viewBox="0 0 595.2764999999999 170.079" width="595.2764999999999pt" height="170.079pt" xmlns="http://www.w3.org/2000/svg" xmlns:xlink="http://www.w3.org/1999/xlink" xmlns:h5="http://www.w3.org/1999/xhtml">
    <g>
        <g transform="translate(0 0)">
            <path class="typst-shape" fill="#fffdf2" d="M 0 0 L 0 170.079 L 595.2765 170.079 L 595.2765 0 Z "/>
        </g>
        <g transform="translate(239.94525 28.3465)">
            <g class="typst-group">
                <g>
                    <g transform="translate(0 0)">
                        <path class="typst-shape" fill="none" stroke="#aaaaaa" stroke-width="0.2" stroke-linecap="butt" stroke-linejoin="miter" stroke-miterlimit="4" d="M 0 113.386 C 0 113.386 0 0 0 0 "/>
                    </g>
                    <g transform="translate(28.3465 0)">
                        <path class="typst-shape" fill="none" stroke="#aaaaaa" stroke-width="0.2" stroke-linecap="butt" stroke-linejoin="miter" stroke-miterlimit="4" d="M 0 113.386 C 0 113.386 0 0 0 0 "/>
                    </g>
                    <g transform="translate(56.693 0)">
                        <path class="typst-shape" fill="none" stroke="#aaaaaa" stroke-width="0.2" stroke-linecap="butt" stroke-linejoin="miter" stroke-miterlimit="4" d="M 0 113.386 C 0 113.386 0 0 0 0 "/>
                    </g>
                    <g transform="translate(85.0395 0)">
                        <path class="typst-shape" fill="none" stroke="#aaaaaa" stroke-width="0.2" stroke-linecap="butt" stroke-linejoin="miter" stroke-miterlimit="4" d="M 0 113.386 C 0 113.386 0 0 0 0 "/>
                    </g>
                    <g transform="translate(113.386 0)">
                        <path class="typst-shape" fill="none" stroke="#aaaaaa" stroke-width="0.2" stroke-linecap="butt" stroke-linejoin="miter" stroke-miterlimit="4" d="M 0 113.386 C 0 113.386 0 0 0 0 "/>
                    </g>
                    <g transform="translate(0 113.386)">
                        <path class="typst-shape" fill="none" stroke="#aaaaaa" stroke-width="0.2" stroke-linecap="butt" stroke-linejoin="miter" stroke-miterlimit="4" d="M 0 0 C 0 0 113.386 0 113.386 0 "/>
                    </g>
                    <g transform="translate(0 85.0395)">
                        <path class="typst-shape" fill="none" stroke="#aaaaaa" stroke-width="0.2" stroke-linecap="butt" stroke-linejoin="miter" stroke-miterlimit="4" d="M 0 0 C 0 0 113.386 0 113.386 0 "/>
                    </g>
                    <g transform="translate(0 56.693)">
                        <path class="typst-shape" fill="none" stroke="#aaaaaa" stroke-width="0.2" stroke-linecap="butt" stroke-linejoin="miter" stroke-miterlimit="4" d="M 0 0 C 0 0 113.386 0 113.386 0 "/>
                    </g>
                    <g transform="translate(0 28.3465)">
                        <path class="typst-shape" fill="none" stroke="#aaaaaa" stroke-width="0.2" stroke-linecap="butt" stroke-linejoin="miter" stroke-miterlimit="4" d="M 0 0 C 0 0 113.386 0 113.386 0 "/>
                    </g>
                    <g transform="translate(0 0)">
                        <path class="typst-shape" fill="none" stroke="#aaaaaa" stroke-width="0.2" stroke-linecap="butt" stroke-linejoin="miter" stroke-miterlimit="4" d="M 0 0 C 0 0 113.386 0 113.386 0 "/>
                    </g>
                    <g transform="translate(54.693 54.693)">
                        <path class="typst-shape" fill="#000000" d="M 2 0 C 3.103568 0 4 0.896432 4 2 C 4 2 4 2 4 2 C 4 3.103568 3.103568 4 2 4 C 2 4 2 4 2 4 C 0.896432 4 0 3.103568 0 2 C 0 2 0 2 0 2 C 0 0.896432 0.896432 0 2 0 C 2 0 2 0 2 0 Z "/>
                    </g>
                    <g transform="translate(57.966593896041395 53.33703301055787)">
                        <path class="typst-shape" fill="#000000" d="M 2 0 C 3.103568 0 4 0.896432 4 2 C 4 2 4 2 4 2 C 4 3.103568 3.103568 4 2 4 C 2 4 2 4 2 4 C 0.896432 4 0 3.103568 0 2 C 0 2 0 2 0 2 C 0 0.896432 0.896432 0 2 0 C 2 0 2 0 2 0 Z "/>
                    </g>
                    <g transform="translate(59.70400059322612 49.681999406773876)">
                        <path class="typst-shape" fill="#000000" d="M 2 0 C 3.103568 0 4 0.896432 4 2 C 4 2 4 2 4 2 C 4 3.103568 3.103568 4 2 4 C 2 4 2 4 2 4 C 0.896432 4 0 3.103568 0 2 C 0 2 0 2 0 2 C 0 0.896432 0.896432 0 2 0 C 2 0 2 0 2 0 Z "/>
                    </g>
                    <g transform="translate(58.760900968326375 44.8722183118758)">
                        <path class="typst-shape" fill="#000000" d="M 2 0 C 3.103568 0 4 0.896432 4 2 C 4 2 4 2 4 2 C 4 3.103568 3.103568 4 2 4 C 2 4 2 4 2 4 C 0.896432 4 0 3.103568 0 2 C 0 2 0 2 0 2 C 0 0.896432 0.896432 0 2 0 C 2 0 2 0 2 0 Z "/>
                    </g>
                    <g transform="translate(54.693 40.51975)">
                        <path class="typst-shape" fill="#000000" d="M 2 0 C 3.103568 0 4 0.896432 4 2 C 4 2 4 2 4 2 C 4 3.103568 3.103568 4 2 4 C 2 4 2 4 2 4 C 0.896432 4 0 3.103568 0 2 C 0 2 0 2 0 2 C 0 0.896432 0.896432 0 2 0 C 2 0 2 0 2 0 Z "/>
                    </g>
                    <g transform="translate(47.91316505278937 38.325030519793)">
                        <path class="typst-shape" fill="#000000" d="M 2 0 C 3.103568 0 4 0.896432 4 2 C 4 2 4 2 4 2 C 4 3.103568 3.103568 4 2 4 C 2 4 2 4 2 4 C 0.896432 4 0 3.103568 0 2 C 0 2 0 2 0 2 C 0 0.896432 0.896432 0 2 0 C 2 0 2 0 2 0 Z "/>
                    </g>
                    <g transform="translate(39.65999822032165 39.659998220321654)">
                        <path class="typst-shape" fill="#000000" d="M 2 0 C 3.103568 0 4 0.896432 4 2 C 4 2 4 2 4 2 C 4 3.103568 3.103568 4 2 4 C 2 4 2 4 2 4 C 0.896432 4 0 3.103568 0 2 C 0 2 0 2 0 2 C 0 0.896432 0.896432 0 2 0 C 2 0 2 0 2 0 Z "/>
                    </g>
                    <g transform="translate(31.777842727710212 45.201231073905106)">
                        <path class="typst-shape" fill="#000000" d="M 2 0 C 3.103568 0 4 0.896432 4 2 C 4 2 4 2 4 2 C 4 3.103568 3.103568 4 2 4 C 2 4 2 4 2 4 C 0.896432 4 0 3.103568 0 2 C 0 2 0 2 0 2 C 0 0.896432 0.896432 0 2 0 C 2 0 2 0 2 0 Z "/>
                    </g>
                    <g transform="translate(26.3465 54.693)">
                        <path class="typst-shape" fill="#000000" d="M 2 0 C 3.103568 0 4 0.896432 4 2 C 4 2 4 2 4 2 C 4 3.103568 3.103568 4 2 4 C 2 4 2 4 2 4 C 0.896432 4 0 3.103568 0 2 C 0 2 0 2 0 2 C 0 0.896432 0.896432 0 2 0 C 2 0 2 0 2 0 Z "/>
                    </g>
                    <g transform="translate(25.23065493562741 66.89670290497915)">
                        <path class="typst-shape" fill="#000000" d="M 2 0 C 3.103568 0 4 0.896432 4 2 C 4 2 4 2 4 2 C 4 3.103568 3.103568 4 2 4 C 2 4 2 4 2 4 C 0.896432 4 0 3.103568 0 2 C 0 2 0 2 0 2 C 0 0.896432 0.896432 0 2 0 C 2 0 2 0 2 0 Z "/>
                    </g>
                    <g transform="translate(29.637997033869407 79.74800296613058)">
                        <path class="typst-shape" fill="#000000" d="M 2 0 C 3.103568 0 4 0.896432 4 2 C 4 2 4 2 4 2 C 4 3.103568 3.103568 4 2 4 C 2 4 2 4 2 4 C 0.896432 4 0 3.103568 0 2 C 0 2 0 2 0 2 C 0 0.896432 0.896432 0 2 0 C 2 0 2 0 2 0 Z "/>
                    </g>
                    <g transform="translate(39.77736311613658 90.70253285645538)">
                        <path class="typst-shape" fill="#000000" d="M 2 0 C 3.103568 0 4 0.896432 4 2 C 4 2 4 2 4 2 C 4 3.103568 3.103568 4 2 4 C 2 4 2 4 2 4 C 0.896432 4 0 3.103568 0 2 C 0 2 0 2 0 2 C 0 0.896432 0.896432 0 2 0 C 2 0 2 0 2 0 Z "/>
                    </g>
                    <g transform="translate(54.692999999999984 97.21275)">
                        <path class="typst-shape" fill="#000000" d="M 2 0 C 3.103568 0 4 0.896432 4 2 C 4 2 4 2 4 2 C 4 3.103568 3.103568 4 2 4 C 2 4 2 4 2 4 C 0.896432 4 0 3.103568 0 2 C 0 2 0 2 0 2 C 0 0.896432 0.896432 0 2 0 C 2 0 2 0 2 0 Z "/>
                    </g>
                    <g transform="translate(72.32057086274766 97.24972064853817)">
                        <path class="typst-shape" fill="#000000" d="M 2 0 C 3.103568 0 4 0.896432 4 2 C 4 2 4 2 4 2 C 4 3.103568 3.103568 4 2 4 C 2 4 2 4 2 4 C 0.896432 4 0 3.103568 0 2 C 0 2 0 2 0 2 C 0 0.896432 0.896432 0 2 0 C 2 0 2 0 2 0 Z "/>
                    </g>
                    <g transform="translate(89.77000415258281 89.77000415258283)">
                        <path class="typst-shape" fill="#000000" d="M 2 0 C 3.103568 0 4 0.896432 4 2 C 4 2 4 2 4 2 C 4 3.103568 3.103568 4 2 4 C 2 4 2 4 2 4 C 0.896432 4 0 3.103568 0 2 C 0 2 0 2 0 2 C 0 0.896432 0.896432 0 2 0 C 2 0 2 0 2 0 Z "/>
                    </g>
                    <g transform="translate(103.79690844062097 75.03250484163195)">
                        <path class="typst-shape" fill="#000000" d="M 2 0 C 3.103568 0 4 0.896432 4 2 C 4 2 4 2 4 2 C 4 3.103568 3.103568 4 2 4 C 2 4 2 4 2 4 C 0.896432 4 0 3.103568 0 2 C 0 2 0 2 0 2 C 0 0.896432 0.896432 0 2 0 C 2 0 2 0 2 0 Z "/>
                    </g>
                    <g transform="translate(111.386 54.69300000000001)">
                        <path class="typst-shape" fill="#000000" d="M 2 0 C 3.103568 0 4 0.896432 4 2 C 4 2 4 2 4 2 C 4 3.103568 3.103568 4 2 4 C 2 4 2 4 2 4 C 0.896432 4 0 3.103568 0 2 C 0 2 0 2 0 2 C 0 0.896432 0.896432 0 2 0 C 2 0 2 0 2 0 Z "/>
                    </g>
                </g>
            </g>
        </g>
    </g>
</svg>
