<svg class="typst-doc" viewBox="0 0 595.2764999999999 121.88994999999994" width="595.2764999999999pt" height="121.88994999999994pt" xmlns="http://www.w3.org/2000/svg" xmlns:xlink="http://www.w3.org/1999/xlink" xmlns:h5="http://www.w3.org/1999/xhtml">
    <g>
        <g transform="translate(0 0)">
            <path class="typst-shape" fill="#fffdf2" d="M 0 0 L 0 121.88995 L 595.2765 121.88995 L 595.2765 0 Z "/>
        </g>
        <g transform="translate(265.03977499999996 28.3465)">
            <g class="typst-group">
                <g>
                    <g transform="translate(8.503950000000007 0)">
                        <path class="typst-shape" fill="none" stroke="#000000" stroke-width="1" stroke-linecap="butt" stroke-linejoin="miter" stroke-miterlimit="4" d="M 28.3465 0 C 43.987644 0 56.693 12.705355 56.693 28.3465 C 56.693 28.3465 56.693 28.3465 56.693 28.3465 C 56.693 43.987644 43.987644 56.693 28.3465 56.693 C 28.3465 56.693 28.3465 56.693 28.3465 56.693 C 12.705355 56.693 0 43.987644 0 28.3465 C 0 28.3465 0 28.3465 0 28.3465 C 0 12.705355 12.705355 0 28.3465 0 C 28.3465 0 28.3465 0 28.3465 0 Z "/>
                    </g>
                    <g transform="translate(0 48.189049999999945)">
                        <path class="typst-shape" fill="#ff4136" stroke="#000000" stroke-width="1" stroke-linecap="butt" stroke-linejoin="miter" stroke-miterlimit="4" d="M 8.50395 0 C 13.196294 0 17.0079 3.8116064 17.0079 8.50395 C 17.0079 8.50395 17.0079 8.50395 17.0079 8.50395 C 17.0079 13.196294 13.196294 17.0079 8.50395 17.0079 C 8.50395 17.0079 8.50395 17.0079 8.50395 17.0079 C 3.8116064 17.0079 0 13.196294 0 8.50395 C 0 8.50395 0 8.50395 0 8.50395 C 0 3.8116064 3.8116064 0 8.50395 0 C 8.50395 0 8.50395 0 8.50395 0 Z "/>
                    </g>
                </g>
            </g>
        </g>
    </g>
</svg>
