<svg class="typst-doc" viewBox="0 0 595.2764999999999 76.693" width="595.2764999999999pt" height="76.693pt" xmlns="http://www.w3.org/2000/svg" xmlns:xlink="http://www.w3.org/1999/xlink" xmlns:h5="http://www.w3.org/1999/xhtml">
    <g>
        <g transform="translate(0 0)">
            <path class="typst-shape" fill="#fffdf2" d="M 0 0 L 0 76.693 L 595.2765 76.693 L 595.2765 0 Z "/>
        </g>
        <g transform="translate(277.63824999999997 28.3465)">
            <g class="typst-group">
                <g>
                    <g transform="translate(0 0)">
                        <path class="typst-shape" fill="none" stroke="#000000" stroke-width="1" stroke-linecap="butt" stroke-linejoin="miter" stroke-miterlimit="4" d="M 20 0 C 31.03568 0 40 4.48216 40 10 C 40 10 40 10 40 10 C 40 15.51784 31.03568 20 20 20 C 20 20 20 20 20 20 C 8.96432 20 0 15.51784 0 10 C 0 10 0 10 0 10 C 0 4.48216 8.96432 0 20 0 C 20 0 20 0 20 0 Z "/>
                    </g>
                </g>
            </g>
        </g>
    </g>
</svg>
