<svg class="typst-doc" viewBox="0 0 595.2764999999999 85.0395" width="595.2764999999999pt" height="85.0395pt" xmlns="http://www.w3.org/2000/svg" xmlns:xlink="http://www.w3.org/1999/xlink" xmlns:h5="http://www.w3.org/1999/xhtml">
    <g>
        <g transform="translate(0 0)">
            <path class="typst-shape" fill="#fffdf2" d="M 0 0 L 0 85.0395 L 595.2765 85.0395 L 595.2765 0 Z "/>
        </g>
        <g transform="translate(255.11849999999998 28.3465)">
            <g class="typst-group">
                <g>
                    <g transform="translate(0 28.3465)">
                        <path class="typst-shape" fill="none" stroke="#000000" stroke-width="1" stroke-linecap="butt" stroke-linejoin="miter" stroke-miterlimit="4" d="M 0 0 C 0 0 28.3465 0 28.3465 0 "/>
                    </g>
                    <g transform="translate(0 0)">
                        <path class="typst-shape" fill="none" stroke="#000000" stroke-width="1" stroke-linecap="butt" stroke-linejoin="miter" stroke-miterlimit="4" d="M 0 28.3465 C 0 28.3465 0 0 0 0 "/>
                    </g>
                    <g transform="translate(0 14.17325)">
                        <path class="typst-shape" fill="none" stroke="#000000" stroke-width="1" stroke-linecap="butt" stroke-linejoin="miter" stroke-miterlimit="4" d="M 0 14.17325 C 0 14.17325 14.17325 0 14.17325 0 "/>
                    </g>
                    <g transform="translate(56.693 28.3465)">
                        <path class="typst-shape" fill="none" stroke="#000000" stroke-width="1" stroke-linecap="butt" stroke-linejoin="miter" stroke-miterlimit="4" d="M 0 0 C 0 0 28.3465 0 28.3465 0 "/>
                    </g>
                    <g transform="translate(56.693 0)">
                        <path class="typst-shape" fill="none" stroke="#000000" stroke-width="1" stroke-linecap="butt" stroke-linejoin="miter" stroke-miterlimit="4" d="M 0 28.3465 C 0 28.3465 0 0 0 0 "/>
                    </g>
                    <g transform="translate(56.693 14.17325)">
                        <path class="typst-shape" fill="none" stroke="#000000" stroke-width="1" stroke-linecap="butt" stroke-linejoin="miter" stroke-miterlimit="4" d="M 0 14.17325 C 0 14.17325 14.17325 0 14.17325 0 "/>
                    </g>
                </g>
            </g>
        </g>
    </g>
</svg>
